<svg width="31" height="30" viewBox="0 0 31 30" fill="none" xmlns="http://www.w3.org/2000/svg">
<path fill-rule="evenodd" clip-rule="evenodd" d="M13.4167 9.78V2.97C13.4167 0.855 12.4567 0 10.0717 0H4.01166C1.62666 0 0.666656 0.855 0.666656 2.97V9.765C0.666656 11.895 1.62666 12.735 4.01166 12.735H10.0717C12.4567 12.75 13.4167 11.895 13.4167 9.78ZM30.6667 2.97V9.78C30.6667 11.895 29.7067 12.75 27.3217 12.735H21.2617C18.8767 12.735 17.9167 11.895 17.9167 9.765V2.97C17.9167 0.855 18.8767 0 21.2617 0H27.3217C29.7067 0 30.6667 0.855 30.6667 2.97ZM30.6667 20.595V26.655C30.6667 29.04 29.7067 30 27.3217 30H21.2617C18.8767 30 17.9167 29.04 17.9167 26.655V20.595C17.9167 18.21 18.8767 17.25 21.2617 17.25H27.3217C29.7067 17.25 30.6667 18.21 30.6667 20.595ZM13.4167 20.595V26.655C13.4167 29.04 12.4567 30 10.0717 30H4.01166C1.62666 30 0.666656 29.04 0.666656 26.655V20.595C0.666656 18.21 1.62666 17.25 4.01166 17.25H10.0717C12.4567 17.25 13.4167 18.21 13.4167 20.595Z" fill="url(#paint0_linear_4_149)"/>
<defs>
<linearGradient id="paint0_linear_4_149" x1="31" y1="0" x2="1" y2="30" gradientUnits="userSpaceOnUse">
<stop stop-color="#007EF2"/>
<stop offset="1" stop-color="#3FC4FF"/>
</linearGradient>
</defs>
</svg>
