<svg width="38" height="27" viewBox="0 0 38 27" fill="none" xmlns="http://www.w3.org/2000/svg">
<path fill-rule="evenodd" clip-rule="evenodd" d="M24.3567 0.00102921C23.3864 0.00153951 22.4163 0.00204969 21.4467 0.00204969C17.5428 0.00204969 13.6308 0.00204969 9.72696 0.0102168C8.5019 0.0102168 7.63619 0.573744 7.27684 1.57013C6.69698 3.18721 7.86487 4.74712 9.69429 4.74712C13.1061 4.75937 16.5179 4.75783 19.9297 4.7563C21.067 4.75579 22.2042 4.75528 23.3415 4.75528H33.0603C34.1547 4.75528 34.9877 4.30609 35.4287 3.29338C36.1311 1.68447 34.9469 0.0183838 33.0929 0.0102168C30.1832 -0.00203492 27.2688 -0.000502254 24.3567 0.00102921ZM18.2791 15.4478C19.7047 15.4469 21.1306 15.446 22.5574 15.446C25.8978 15.446 29.2299 15.446 32.5784 15.4623C32.8613 15.4623 33.1442 15.4641 33.4271 15.466C34.1814 15.4708 34.9357 15.4757 35.6901 15.446C36.9478 15.397 37.9034 14.4578 37.9932 13.249C38.083 12.073 37.2745 10.9949 36.1066 10.7581C35.823 10.6958 35.5219 10.698 35.228 10.7001C35.1748 10.7005 35.1219 10.7009 35.0694 10.7009H11.4829C11.2776 10.7009 11.0716 10.6987 10.865 10.6965C10.3814 10.6914 9.89492 10.6862 9.40847 10.7091C8.41209 10.7499 7.59538 11.3706 7.27686 12.2853C6.70517 13.9106 7.87306 15.4378 9.72698 15.446C12.5797 15.4514 15.4288 15.4496 18.2791 15.4478ZM17.2488 26.1285C16.4842 26.1285 15.7195 26.1307 14.9551 26.1329C13.1721 26.1381 11.3904 26.1432 9.61263 26.1203C7.77504 26.0958 6.62348 24.3726 7.35035 22.7882C7.7832 21.8408 8.55907 21.3834 9.59629 21.3834C10.8705 21.3834 12.1443 21.3829 13.4177 21.3824H13.4185H13.4193H13.42C17.239 21.3809 21.0556 21.3793 24.8769 21.3916C26.2816 21.3916 27.3107 22.4206 27.3107 23.7519C27.3188 25.0749 26.2979 26.1122 24.885 26.1285C23.4031 26.146 21.9171 26.1427 20.4328 26.1393H20.4324H20.4316H20.4307H20.4298C19.8373 26.138 19.2451 26.1367 18.6536 26.1367C18.188 26.1285 17.7144 26.1285 17.2488 26.1285ZM2.20511 4.75528C3.57718 4.78795 4.7369 3.76706 4.75323 2.5175C4.76957 1.11277 3.72418 0.0183795 2.38478 0.0183795C1.04538 0.0183795 0 1.1046 0 2.50933C0 3.66089 1.04538 4.73078 2.20511 4.75528ZM4.75324 13.0939C4.74508 14.3761 3.72419 15.446 2.5073 15.446C1.10257 15.4378 0.0163458 14.4006 0.00817871 13.0694C0.00817871 11.7953 1.07806 10.7173 2.36029 10.7091C3.67519 10.6927 4.75324 11.7708 4.75324 13.0939ZM2.49912 26.1285C3.71601 26.1367 4.74506 25.0586 4.75323 23.7764C4.75323 22.4615 3.67518 21.3834 2.36844 21.3916C1.08622 21.3916 0.00816276 22.4696 0.00816276 23.7437C-4.31016e-06 25.0749 1.10255 26.1203 2.49912 26.1285Z" fill="url(#paint0_linear_4_150)"/>
<defs>
<linearGradient id="paint0_linear_4_150" x1="38.4223" y1="0" x2="14.0081" y2="35.4884" gradientUnits="userSpaceOnUse">
<stop stop-color="#007EF2"/>
<stop offset="1" stop-color="#3FC4FF"/>
</linearGradient>
</defs>
</svg>
