<svg width="30" height="30" viewBox="0 0 30 30" fill="none" xmlns="http://www.w3.org/2000/svg">
<path fill-rule="evenodd" clip-rule="evenodd" d="M12.75 9.78V2.97C12.75 0.855 11.79 0 9.405 0H3.345C0.96 0 0 0.855 0 2.97V9.765C0 11.895 0.96 12.735 3.345 12.735H9.405C11.79 12.75 12.75 11.895 12.75 9.78ZM30 2.97V9.78C30 11.895 29.04 12.75 26.655 12.735H20.595C18.21 12.735 17.25 11.895 17.25 9.765V2.97C17.25 0.855 18.21 0 20.595 0H26.655C29.04 0 30 0.855 30 2.97ZM28.5 21.375H19.5C18.885 21.375 18.375 20.865 18.375 20.25C18.375 19.635 18.885 19.125 19.5 19.125H28.5C29.115 19.125 29.625 19.635 29.625 20.25C29.625 20.865 29.115 21.375 28.5 21.375ZM28.5 27.375H19.5C18.885 27.375 18.375 26.865 18.375 26.25C18.375 25.635 18.885 25.125 19.5 25.125H28.5C29.115 25.125 29.625 25.635 29.625 26.25C29.625 26.865 29.115 27.375 28.5 27.375ZM12.75 20.595V26.655C12.75 29.04 11.79 30 9.405 30H3.345C0.96 30 0 29.04 0 26.655V20.595C0 18.21 0.96 17.25 3.345 17.25H9.405C11.79 17.25 12.75 18.21 12.75 20.595Z" fill="url(#paint0_linear_4_148)"/>
<defs>
<linearGradient id="paint0_linear_4_148" x1="30.3333" y1="0" x2="0.333345" y2="30" gradientUnits="userSpaceOnUse">
<stop stop-color="#007EF2"/>
<stop offset="1" stop-color="#3FC4FF"/>
</linearGradient>
</defs>
</svg>
