<svg width="17" height="17" viewBox="0 0 17 17" fill="none" xmlns="http://www.w3.org/2000/svg">
<path d="M13.6574 2.34456C10.5339 -0.778916 5.46609 -0.778916 2.34261 2.34456C-0.78087 5.46804 -0.78087 10.5359 2.34261 13.6593C5.46609 16.7828 10.5339 16.7828 13.6574 13.6593C16.7843 10.5324 16.7809 5.46804 13.6574 2.34456ZM9.04522 11.4785C9.04522 12.0559 8.57913 12.522 8.00174 12.522C7.42435 12.522 6.95826 12.0559 6.95826 11.4785V7.30456C6.95826 6.72717 7.42435 6.26108 8.00174 6.26108C8.57913 6.26108 9.04522 6.72717 9.04522 7.30456V11.4785ZM7.98435 5.52021C7.38261 5.52021 6.98261 5.09587 6.99652 4.57065C6.98261 4.02108 7.38609 3.60717 7.99826 3.60717C8.61044 3.60717 9 4.02108 9.01391 4.57065C9.01044 5.09587 8.61044 5.52021 7.98435 5.52021Z" fill="#F42929"/>
</svg>
